# xmcd
#
# Track frame offsets:
#	150
#	16977
#	32979
#	46601
#	64738
#	83050
#	98057
#	115711
#	132861
#	149205
#	167050
#	183114
#	198801
#	213258
#	227633
#	241752
#	259124
#	276316
#	292851
#	308765
#
# Disc length: 4357 seconds
#
# Revision: 1
# Processed by: cddbd v1.5.2PL0 Copyright (c) Steve Scherf et al.
# Submitted via: EasyCDDAExtractor 6.2.0.3
#
DISCID=0e110314
DTITLE=Various Artist - Mega Dance 1999 Vol 2
DYEAR=1999
DGENRE=
TTITLE0=Cher - Strong Enough
TTITLE1=ATB - Don't stop
TTITLE2=Toy Boy - Tarzan and Jane
TTITLE3=Sasha - If you believe
TTITLE4=Ginuwine - Same ol' g
TTITLE5=Will Smith - Miami
TTITLE6=System F - Out of the blue
TTITLE7=Fatboy Slim - Praise you
TTITLE8=Sash - Colour the world
TTITLE9=Hai Tracid - Liquid skies
TTITLE10=2 Brothers on the 4th Floor - Heaven is here
TTITLE11=Sooulsearcher - Can't get enough
TTITLE12=Dr. BOmbay - Rice and Curry
TTITLE13=The Sunclub - Wetsuit
TTITLE14=Strings of Harmony - Part 1 and 3 rmx
TTITLE15=2-4 Family - Stay
TTITLE16=Critical Mass - In your eyes
TTITLE17=DJ Sakin and Friends - Protect your mind
TTITLE18=Miss Jane - It's a fine day
TTITLE19=Chef - Chocolate salty balls
EXTD=
EXTT0=
EXTT1=
EXTT2=
EXTT3=
EXTT4=
EXTT5=
EXTT6=
EXTT7=
EXTT8=
EXTT9=
EXTT10=
EXTT11=
EXTT12=
EXTT13=
EXTT14=
EXTT15=
EXTT16=
EXTT17=
EXTT18=
EXTT19=
PLAYORDER=
